Simulation
nRows=23
nColumns=15
endheader
time  TH_x TH_y TH_z SC_y  SC_z  SC_x  AC_y  AC_z  AC_x  GH_y  GH_z  GH_yy  EL_x  PS_y
2.8725  0.000000  0.000000  0.000000  -33.27924329894335  -6.405120098815299  14.96645192441134  48.863883706466424  -24.703586233902765  -5.292061100044144  -18.40092140562631  31.332893163973687  15.54179198221766  14.153517510323232  120.000000
2.92995  0.000000  0.000000  0.000000  -33.36430575413235  -6.152889718538609  16.71173833107083  48.254954130827464  -25.352617595528056  -6.883640313523078  -17.119962334405184  28.92159564471089  17.492477475933068  14.510697526015328  120.000000
2.9874  0.000000  0.000000  0.000000  -33.455998543429764  -5.944445841906003  17.993466937687657  47.878134214228545  -25.797163357761864  -7.977307803533856  -15.890573433882045  26.97961050621753  18.933944051409725  14.949368821212122  120.000000
3.0448500000000003  0.000000  0.000000  0.000000  -33.542456237300016  -5.762529650087032  18.867653465354852  47.69514060564577  -26.0708020549351  -8.634848480718617  -14.755339068684384  25.458410148846447  19.869173186147027  15.428783219209407  120.000000
3.1023  0.000000  0.000000  0.000000  -33.62545958955443  -5.59015080988749  19.417309635023955  47.65482611103526  -26.212235604684086  -8.950798851938364  -13.76143725067561  24.30887852310603  20.38080468300546  15.908012459997277  120.000000
3.15975  0.000000  0.000000  0.000000  -33.70824892905426  -5.418586524666687  19.740244542129503  47.700770450688154  -26.264572353198165  -9.038965358138295  -12.944837052824202  23.482788179787565  20.590368814541748  16.356128761015704  120.000000
3.2172  0.000000  0.000000  0.000000  -33.78401134162604  -5.253222052104171  19.939253003749737  47.771469959383246  -26.274749906306845  -9.02591685017902  -12.313813305879142  22.93046083447455  20.621193652156425  16.76207588449519  120.000000
3.2746500000000003  0.000000  0.000000  0.000000  -33.84631569565295  -5.1062680656759465  20.090769131819968  47.82402032791931  -26.278852650607643  -9.006805867126177  -11.847874398352973  22.598008318633706  20.576436789626133  17.132059756930225  120.000000
3.3321  0.000000  0.000000  0.000000  -33.897083757403024  -4.982896254414158  20.219680452349802  47.85753631719794  -26.28583724660506  -9.00166590697298  -11.517925124509865  22.423454819015028  20.540440594393715  17.481213523434878  120.000000
3.38955  0.000000  0.000000  0.000000  -33.93840008562436  -4.885487062613458  20.32523228943236  47.8892727214849  -26.29066891483814  -8.994536512140352  -11.278331825901647  22.343864398104927  20.557123995731132  17.825762366543234  120.000000
3.447  0.000000  0.000000  0.000000  -33.97248243875342  -4.812937973367747  20.401535357900375  47.935362127265705  -26.287664383917285  -8.966907759193246  -11.073731907219566  22.30619524680944  20.627831332866148  18.177625302361704  120.000000
3.5044500000000003  0.000000  0.000000  0.000000  -34.007281508098075  -4.755158093536861  20.43534535125054  48.01161928630853  -26.26670618066598  -8.890293675160192  -10.874261437156038  22.272004791735533  20.744186534938326  18.539855640063944  120.000000
3.5619  0.000000  0.000000  0.000000  -34.050416405018765  -4.693557988835158  20.41304177061385  48.13134203232478  -26.216987051359204  -8.735684712182698  -10.68200961312673  22.217512574636427  20.903674210810326  18.909811843206114  120.000000
3.61935  0.000000  0.000000  0.000000  -34.10676212933917  -4.60912880009928  20.32570890499262  48.301363056483225  -26.129744346615478  -8.482124050648663  -10.52011889711813  22.1321353394614  21.111815593061714  19.282907795578307  120.000000
3.6768  0.000000  0.000000  0.000000  -34.180459247758776  -4.488603738331069  20.16560099484516  48.525792538675454  -25.997995437881634  -8.115274751873436  -10.415417825824415  22.016443255103738  21.37550689756986  19.655843624825682  120.000000
3.7342500000000003  0.000000  0.000000  0.000000  -34.27187332152385  -4.330422822342504  19.92215691736233  48.80666781332225  -25.810564616679503  -7.629246064733384  -10.387587814085736  21.877775806826534  21.699251303970684  20.028384408307982  120.000000
3.7917  0.000000  0.000000  0.000000  -34.37487374473065  -4.145018152042356  19.581461614388747  49.144236691311114  -25.55328037495131  -7.025250392173049  -10.449645223057438  21.73065468541488  22.08814886598067  20.40262741405074  120.000000
3.84915  0.000000  0.000000  0.000000  -34.481225250995465  -3.949819733197974  19.128786859977467  49.53748524850587  -25.220031657779195  -6.304882748329866  -10.616582320162237  21.60444045994718  22.5568710877164  20.78043282366884  120.000000
3.9066  0.000000  0.000000  0.000000  -34.5820813894095  -3.7658872387098907  18.549101088561603  49.98380702868688  -24.815648975671753  -5.467382046651998  -10.913965732318665  21.546728623252875  23.138030228090905  21.16133768278501  120.000000
3.9640500000000003  0.000000  0.000000  0.000000  -34.67124254552741  -3.6145512136227036  17.823807098734274  50.478400486319124  -24.350806848198523  -4.509942587334156  -11.37452922429344  21.62192270064756  23.87762323079425  21.54217056567965  120.000000
4.0215  0.000000  0.000000  0.000000  -34.74782280933983  -3.5152224296160104  16.92916682670242  51.015543304243955  -23.83633788750705  -3.4261120112552526  -12.01907951724865  21.903985402869232  24.810889394415874  21.91758051264805  120.000000
4.07895  0.000000  0.000000  0.000000  -34.809613653370036  -3.4880427508296186  15.833647822590342  51.59567770547343  -23.27534529354475  -2.2013131822004106  -12.82810499776767  22.461521040685675  25.925914932285544  22.279839589518357  120.000000
4.1364  0.000000  0.000000  0.000000  -34.852908114407825  -3.55346233247466  14.508994034817327  52.2256475546164  -22.664552691980276  -0.818707590646146  -13.724629897124244  23.3416319300501  27.136543429135113  22.61760283079596  120.000000
